<svg width="24" height="24" viewBox="0 0 24 24" fill="none" xmlns="http://www.w3.org/2000/svg">
    <g id="vuesax/linear/huobi-token-(ht)">
        <g id="huobi-token-(ht)">
            <path id="Vector" d="M16.1999 10C16.1999 10 15.9999 11 12.9999 15C10.0999 18.8 14.2999 21.6 14.7999 22H14.8999C15.4999 21.5 23.0999 16.7 16.1999 10Z" stroke="white" stroke-miterlimit="10" stroke-linecap="round" stroke-linejoin="round"/>
            <path id="Vector_2" d="M13.7998 7.79982C13.7998 5.49982 12.8998 3.39982 11.9998 2.19982C11.6998 1.89982 11.1998 1.99982 11.0998 2.39982C10.6998 3.89982 9.49981 7.09982 6.59981 10.8998C2.89981 15.6998 6.29981 20.8998 9.79981 21.8998C11.6998 22.3998 9.29981 20.8998 8.99981 17.7998C8.69981 13.8998 13.7998 10.9998 13.7998 7.79982Z" stroke="white" stroke-miterlimit="10" stroke-linecap="round" stroke-linejoin="round"/>
        </g>
    </g>
</svg>
