<svg width="20" height="20" viewBox="0 0 20 20" fill="none" xmlns="http://www.w3.org/2000/svg">
    <g id="vuesax/linear/copy">
        <g id="copy">
            <path id="Vector" d="M13.0897 10.6955V13.941C13.0897 16.6455 12.0078 17.7274 9.3033 17.7274H6.05785C3.3533 17.7274 2.27148 16.6455 2.27148 13.941V10.6955C2.27148 7.991 3.3533 6.90918 6.05785 6.90918H9.3033C12.0078 6.90918 13.0897 7.991 13.0897 10.6955Z" stroke="white" stroke-width="1.15909" stroke-linecap="round" stroke-linejoin="round"/>
            <path id="Vector_2" d="M17.7264 6.05907V9.30452C17.7264 12.0091 16.6446 13.0909 13.94 13.0909H13.09V10.6954C13.09 7.99089 12.0082 6.90907 9.30366 6.90907H6.9082V6.05907C6.9082 3.35452 7.99002 2.27271 10.6946 2.27271H13.94C16.6446 2.27271 17.7264 3.35452 17.7264 6.05907Z" stroke="white" stroke-width="1.15909" stroke-linecap="round" stroke-linejoin="round"/>
        </g>
    </g>
</svg>
