<svg width="24" height="24" viewBox="0 0 24 24" fill="none" xmlns="http://www.w3.org/2000/svg">
    <g id="vuesax/linear/tag-2">
        <g id="tag-2">
            <path id="Vector" d="M4.40476 15.5264L8.93476 20.0564C10.7948 21.9164 13.8148 21.9164 15.6848 20.0564L20.0748 15.6664C21.9348 13.8064 21.9348 10.7864 20.0748 8.91637L15.5348 4.39637C14.5848 3.44637 13.2748 2.93637 11.9348 3.00637L6.93476 3.24637C4.93476 3.33637 3.34476 4.92637 3.24476 6.91637L3.00476 11.9164C2.94476 13.2664 3.45476 14.5764 4.40476 15.5264Z" stroke="#F26C36" stroke-linecap="round" stroke-linejoin="round"/>
            <path id="Vector_2" d="M9.73438 12.2263C11.1151 12.2263 12.2344 11.107 12.2344 9.72632C12.2344 8.34561 11.1151 7.22632 9.73438 7.22632C8.35366 7.22632 7.23438 8.34561 7.23438 9.72632C7.23438 11.107 8.35366 12.2263 9.73438 12.2263Z" stroke="#F26C36" stroke-linecap="round"/>
            <path id="Vector_3" d="M13.2344 17.2263L17.2344 13.2263" stroke="#F26C36" stroke-miterlimit="10" stroke-linecap="round" stroke-linejoin="round"/>
        </g>
    </g>
</svg>
