<svg width="74" height="73" viewBox="0 0 74 73" fill="none" xmlns="http://www.w3.org/2000/svg">
    <g id="vuesax/linear/wind">
        <g id="wind">
            <path id="Vector" d="M46.25 66.9167L46.25 16.7293C46.25 10.8588 51.0908 6.08342 57.0417 6.08342C62.9925 6.08342 67.8333 10.8588 67.8333 16.7293C67.8333 22.5997 62.9925 27.3751 57.0417 27.3751L55.5 27.3751" stroke="#292D32" stroke-width="1.5" stroke-miterlimit="10" stroke-linecap="round" stroke-linejoin="round"/>
            <path id="Vector_2" d="M37.0003 66.9167L37.0003 16.7293C37.0003 10.8893 32.1595 6.08342 26.2087 6.08342C20.2887 6.08342 15.417 10.8893 15.417 16.7293C15.417 22.5693 20.2578 27.3751 26.2087 27.3751L27.7503 27.3751" stroke="#292D32" stroke-width="1.5" stroke-miterlimit="10" stroke-linecap="round" stroke-linejoin="round"/>
            <path id="Vector_3" d="M27.7504 66.9167L27.7504 44.6822C27.7504 40.1501 24.0196 36.5001 19.4563 36.5001C14.8621 36.5001 11.1621 40.1805 11.1621 44.6822C11.1621 49.2143 14.8929 52.8643 19.4563 52.8643L20.6279 52.8643" stroke="#292D32" stroke-width="1.5" stroke-miterlimit="10" stroke-linecap="round" stroke-linejoin="round"/>
        </g>
    </g>
</svg>
